<?xml version="1.0" standalone="no"?>
<!DOCTYPE svg PUBLIC "-//W3C//DTD SVG 20010904//EN"
 "http://www.w3.org/TR/2001/REC-SVG-20010904/DTD/svg10.dtd">
<svg version="1.0" xmlns="http://www.w3.org/2000/svg"
 width="438.000000pt" height="438.000000pt" viewBox="0 0 438.000000 438.000000"
 preserveAspectRatio="xMidYMid meet">

<g transform="translate(0.000000,438.000000) scale(0.100000,-0.100000)"
fill="#000000" stroke="none">
<path d="M1989 4223 c-30 -80 -32 -172 -4 -245 6 -15 -2 -17 -62 -20 l-68 -3
81 -5 82 -5 -18 35 c-29 57 -33 112 -15 181 8 35 18 65 21 68 9 9 113 -110
130 -149 11 -24 14 -53 11 -90 -4 -42 -3 -49 4 -30 6 14 20 33 32 43 21 18 21
18 1 8 -20 -10 -22 -7 -27 30 -8 63 -113 209 -149 209 -5 0 -13 -12 -19 -27z"/>
<path d="M1366 4205 c4 -8 8 -15 10 -15 2 0 4 7 4 15 0 8 -4 15 -10 15 -5 0
-7 -7 -4 -15z"/>
<path d="M1085 4070 c3 -5 8 -10 11 -10 2 0 4 5 4 10 0 6 -5 10 -11 10 -5 0
-7 -4 -4 -10z"/>
<path d="M1471 4056 c7 -15 15 -23 17 -16 3 7 -3 19 -13 28 -15 16 -16 15 -4
-12z"/>
<path d="M2383 4053 c15 -2 37 -2 50 0 12 2 0 4 -28 4 -27 0 -38 -2 -22 -4z"/>
<path d="M2568 4053 c23 -2 61 -2 85 0 23 2 4 4 -43 4 -47 0 -66 -2 -42 -4z"/>
<path d="M2303 4043 c9 -2 23 -2 30 0 6 3 -1 5 -18 5 -16 0 -22 -2 -12 -5z"/>
<path d="M2745 4035 c27 -8 51 -12 53 -10 5 5 -69 25 -88 24 -8 0 7 -7 35 -14z"/>
<path d="M2248 4033 c6 -2 18 -2 25 0 6 3 1 5 -13 5 -14 0 -19 -2 -12 -5z"/>
<path d="M2885 3977 c104 -55 154 -90 245 -173 74 -66 74 -67 20 -10 -74 77
-159 140 -252 187 -104 52 -114 49 -13 -4z"/>
<path d="M1828 3943 c7 -3 16 -2 19 1 4 3 -2 6 -13 5 -11 0 -14 -3 -6 -6z"/>
<path d="M1219 3902 c11 -16 28 -35 38 -43 10 -8 3 5 -16 29 -37 47 -53 58
-22 14z"/>
<path d="M852 3695 c15 -16 30 -26 33 -23 4 3 -9 16 -27 28 l-33 23 27 -28z"/>
<path d="M1000 3546 c0 -3 15 -15 33 -27 l32 -23 -24 27 c-22 24 -41 35 -41
23z"/>
<path d="M431 3496 c2 -2 20 -11 39 -20 l35 -17 -25 20 c-14 11 -31 21 -39 21
-8 0 -12 -2 -10 -4z"/>
<path d="M704 3365 c22 -17 40 -20 32 -6 -3 5 -16 11 -28 14 -22 6 -22 5 -4
-8z"/>
<path d="M3335 3313 c-135 -6 -142 -9 -172 -66 -36 -69 -44 -208 -18 -288 43
-132 108 -218 182 -238 80 -23 105 -16 164 44 l54 55 6 -43 6 -42 1 47 c2 42
10 58 61 127 32 44 62 77 67 73 4 -4 4 -2 0 5 -4 7 2 30 13 52 34 65 71 172
71 201 0 24 -6 30 -46 44 -69 23 -228 35 -389 29z m-49 -24 c3 -6 -3 -23 -13
-38 -16 -20 -18 -30 -9 -43 7 -13 7 -26 0 -46 -8 -20 -8 -33 0 -45 8 -12 8
-22 0 -34 -9 -14 -8 -20 4 -29 9 -6 15 -25 14 -44 0 -24 6 -38 20 -48 15 -11
19 -22 14 -43 -4 -22 -1 -29 14 -34 14 -4 20 -15 20 -36 0 -18 5 -29 13 -29 8
0 22 -9 32 -20 9 -10 25 -19 34 -18 9 1 25 0 35 0 18 -2 18 -3 -4 -27 l-23
-24 -41 20 c-53 27 -87 65 -136 154 -93 168 -92 395 1 395 10 0 21 -5 25 -11z"/>
<path d="M1762 3290 c0 -14 2 -19 5 -12 2 6 2 18 0 25 -3 6 -5 1 -5 -13z"/>
<path d="M1756 3245 c-3 -9 -6 -22 -5 -28 0 -7 5 -1 10 12 5 13 8 26 5 28 -2
2 -6 -3 -10 -12z"/>
<path d="M1016 3105 c-93 -50 -193 -122 -212 -150 -9 -15 -10 -33 -3 -73 13
-70 38 -125 107 -241 31 -53 60 -112 63 -131 4 -22 6 -4 7 50 0 61 -2 79 -9
65 -7 -15 -8 -10 -4 20 2 22 5 50 5 63 0 12 3 22 8 22 4 0 7 -19 5 -42 l-2
-43 9 45 c5 25 8 56 8 70 l0 25 -8 -25 c-9 -24 -9 -24 -7 5 1 18 7 29 15 28 7
-2 12 8 12 25 0 21 -2 24 -11 12 -8 -12 -9 -11 -6 5 2 11 9 19 15 18 15 -4 16
29 1 44 -8 8 -5 17 10 32 21 21 29 47 11 36 -13 -8 -13 15 0 35 8 12 10 12 11
-5 l0 -20 9 20 c12 28 12 47 0 40 -5 -3 -10 1 -10 9 0 18 20 32 21 14 0 -7 4
-4 9 7 12 28 12 37 0 30 -5 -3 -10 1 -10 10 0 11 5 15 14 12 12 -5 32 20 24
29 -2 1 -39 -17 -82 -41z"/>
<path d="M2483 2941 c6 -16 13 -29 16 -28 4 1 46 -39 95 -88 l89 -90 -81 88
c-45 48 -89 101 -99 117 -22 38 -35 39 -20 1z"/>
<path d="M1021 2914 c0 -11 3 -14 6 -6 3 7 2 16 -1 19 -3 4 -6 -2 -5 -13z"/>
<path d="M1870 2870 c6 -11 13 -20 16 -20 2 0 0 9 -6 20 -6 11 -13 20 -16 20
-2 0 0 -9 6 -20z"/>
<path d="M2322 2819 c6 -17 144 -137 187 -162 49 -29 36 -13 -21 25 -29 19
-79 61 -112 93 -32 32 -57 52 -54 44z"/>
<path d="M1919 2794 c14 -30 97 -120 134 -146 18 -12 2 7 -34 42 -36 36 -76
79 -88 95 -12 17 -18 21 -12 9z"/>
<path d="M2551 2714 c0 -11 3 -14 6 -6 3 7 2 16 -1 19 -3 4 -6 -2 -5 -13z"/>
<path d="M2700 2726 c0 -2 8 -10 18 -17 15 -13 16 -12 3 4 -13 16 -21 21 -21
13z"/>
<path d="M1519 2703 c-13 -16 -12 -17 4 -4 9 7 17 15 17 17 0 8 -8 3 -21 -13z"/>
<path d="M1395 2629 c-4 -27 -5 -52 -4 -54 2 -2 13 4 24 12 17 13 17 15 2 9
-16 -5 -18 -1 -11 39 3 25 4 45 1 45 -3 0 -8 -23 -12 -51z"/>
<path d="M1449 2623 c-13 -16 -12 -17 4 -4 9 7 17 15 17 17 0 8 -8 3 -21 -13z"/>
<path d="M2356 2615 c-3 -8 -1 -15 4 -15 6 0 10 7 10 15 0 8 -2 15 -4 15 -2 0
-6 -7 -10 -15z"/>
<path d="M3811 2584 c0 -11 3 -14 6 -6 3 7 2 16 -1 19 -3 4 -6 -2 -5 -13z"/>
<path d="M2547 2559 c-51 -12 -108 -42 -133 -71 -24 -28 -47 -78 -35 -78 5 0
11 6 14 14 3 8 35 29 71 46 78 39 178 50 251 30 55 -16 134 -83 164 -141 43
-83 62 -216 42 -301 -9 -40 -52 -98 -86 -117 -18 -10 -18 -11 5 -5 42 10 69
33 85 71 9 21 23 45 31 54 11 12 12 19 4 24 -15 9 -1 77 18 91 14 10 14 12 0
20 -25 15 -29 53 -7 72 25 21 24 26 -6 40 -29 13 -34 52 -10 72 19 16 10 30
-19 30 -27 0 -49 39 -35 61 15 24 10 29 -23 29 -18 0 -47 9 -65 19 -72 45
-179 61 -266 40z m28 -29 c3 -5 -1 -10 -9 -10 -9 0 -16 5 -16 10 0 6 4 10 9
10 6 0 13 -4 16 -10z"/>
<path d="M1381 2524 c0 -11 3 -14 6 -6 3 7 2 16 -1 19 -3 4 -6 -2 -5 -13z"/>
<path d="M3822 2520 c0 -14 2 -19 5 -12 2 6 2 18 0 25 -3 6 -5 1 -5 -13z"/>
<path d="M1570 2509 c-19 -6 -46 -21 -61 -35 -14 -13 -30 -24 -36 -24 -6 0
-13 -14 -17 -31 -4 -23 -10 -30 -22 -25 -13 5 -15 2 -11 -14 6 -22 -12 -90
-24 -90 -4 0 -5 -16 -2 -35 3 -20 1 -41 -6 -49 -8 -10 -9 -16 -1 -21 14 -9 13
-58 -2 -74 -11 -10 -10 -14 4 -22 10 -5 22 -28 28 -50 11 -41 41 -79 62 -79 7
0 5 5 -5 13 -22 16 -36 86 -37 173 0 108 17 174 59 230 77 102 169 121 287 59
37 -19 72 -35 77 -35 21 0 -59 73 -100 91 -51 23 -146 32 -193 18z"/>
<path d="M2554 2441 c-95 -43 -151 -158 -140 -287 8 -99 45 -185 80 -184 6 0
3 5 -6 11 -36 21 -55 86 -49 174 1 21 4 26 10 17 4 -8 12 -12 17 -10 5 1 12
-10 15 -27 5 -23 7 -25 8 -7 2 36 27 25 41 -18 17 -53 45 -78 69 -63 12 8 23
8 36 0 16 -8 24 -4 48 24 16 19 35 50 43 70 12 29 20 36 35 32 13 -4 19 0 19
11 0 9 7 16 15 16 8 0 15 -9 15 -20 0 -12 7 -20 16 -20 15 0 16 9 11 68 -7 85
-33 156 -73 199 -30 31 -35 33 -100 33 -45 0 -83 -7 -110 -19z m107 -61 c28
-15 26 -74 -3 -94 -67 -47 -144 28 -88 84 22 22 60 26 91 10z"/>
<path d="M3832 2365 c-2 -55 -7 -134 -13 -175 -5 -41 -12 -125 -16 -185 -5
-100 -4 -115 16 -152 11 -23 25 -44 31 -48 6 -3 -1 15 -15 41 -30 57 -33 134
-10 300 9 62 14 156 12 215 l-3 104 -2 -100z"/>
<path d="M969 2399 c-6 -13 -7 -19 -1 -15 6 3 13 0 15 -6 3 -7 6 -1 6 15 1 32
-4 34 -20 6z"/>
<path d="M1669 2398 c-21 -14 -45 -46 -64 -83 -27 -54 -30 -70 -30 -150 1
-103 15 -152 57 -201 43 -49 49 -42 16 22 -20 41 -28 71 -28 108 1 48 1 50 14
27 13 -23 14 -23 18 -5 3 13 8 7 17 -23 15 -55 52 -84 94 -76 46 9 57 21 57
64 0 39 8 45 49 39 24 -3 9 149 -20 207 -28 54 -78 93 -119 93 -15 0 -42 -10
-61 -22z m99 -90 c21 -21 14 -66 -13 -84 -52 -34 -96 18 -65 77 12 22 59 26
78 7z m51 -70 c-1 -18 -3 -25 -6 -15 -2 9 -9 17 -14 17 -5 0 -4 7 3 15 18 20
18 19 17 -17z"/>
<path d="M2757 2153 c-4 -3 -7 -13 -7 -22 1 -13 3 -13 11 2 11 19 8 33 -4 20z"/>
<path d="M2802 2094 c-17 -57 -47 -102 -84 -124 -20 -12 -27 -20 -16 -20 37 0
128 135 116 172 -2 6 -9 -7 -16 -28z"/>
<path d="M1856 2047 c-4 -23 -16 -58 -27 -77 l-21 -35 22 21 c22 21 56 134 40
134 -4 0 -11 -19 -14 -43z"/>
<path d="M1062 2040 c0 -14 2 -19 5 -12 2 6 2 18 0 25 -3 6 -5 1 -5 -13z"/>
<path d="M1362 1993 c9 -21 72 -102 76 -98 5 4 -67 105 -75 105 -2 0 -3 -3 -1
-7z"/>
<path d="M1730 1930 c-34 -7 -34 -7 13 -9 26 0 47 4 47 9 0 11 -8 11 -60 0z"/>
<path d="M2545 1900 c4 -6 11 -8 16 -5 14 9 11 15 -7 15 -8 0 -12 -5 -9 -10z"/>
<path d="M2610 1889 c0 -5 5 -7 10 -4 6 3 10 8 10 11 0 2 -4 4 -10 4 -5 0 -10
-5 -10 -11z"/>
<path d="M3643 1762 c-2 -141 -30 -288 -71 -375 -36 -76 -120 -166 -190 -201
-136 -69 -319 -74 -442 -11 -40 20 -70 44 -70 57 0 4 8 8 18 8 9 1 28 7 41 14
21 12 22 14 7 23 -14 8 -8 13 34 33 77 36 70 42 -9 9 -88 -37 -207 -56 -253
-42 l-33 11 47 1 c59 1 95 15 131 49 40 38 33 50 -8 13 -53 -46 -155 -65 -155
-29 0 6 -19 51 -42 99 -34 70 -48 91 -71 98 -17 7 -25 7 -22 1 4 -6 12 -10 20
-10 37 0 19 -57 -39 -119 -17 -19 -25 -31 -18 -27 9 5 12 -4 12 -35 0 -38 2
-41 23 -34 48 15 101 11 118 -9 11 -14 32 -20 75 -24 45 -4 67 -11 90 -31 72
-61 88 -68 194 -98 71 -20 213 -12 292 16 96 33 185 106 242 198 32 53 72 186
81 277 7 66 8 68 24 49 42 -53 128 -65 191 -27 16 10 18 13 5 8 -64 -22 -104
-25 -138 -10 -55 23 -69 52 -69 150 0 130 -13 103 -15 -32z m-1090 -419 c4
-18 3 -33 -1 -33 -4 0 -9 17 -10 37 -3 44 3 42 11 -4z m322 -88 c-31 -13 -50
-11 -40 6 4 5 21 9 38 8 l32 -1 -30 -13z"/>
<path d="M1061 1836 c-2 -44 27 -144 65 -224 56 -116 198 -252 264 -252 8 0
-10 12 -40 27 -134 67 -257 262 -283 448 l-4 30 -2 -29z"/>
<path d="M1382 1820 c0 -14 2 -19 5 -12 2 6 2 18 0 25 -3 6 -5 1 -5 -13z"/>
<path d="M2794 1725 c-43 -62 -53 -69 -148 -114 -55 -27 -112 -53 -126 -58
-24 -10 -24 -10 -2 -15 12 -4 20 -3 17 1 -2 4 22 18 53 31 129 53 162 77 213
150 27 39 47 70 45 70 -3 0 -26 -29 -52 -65z"/>
<path d="M2018 1773 c7 -3 16 -2 19 1 4 3 -2 6 -13 5 -11 0 -14 -3 -6 -6z"/>
<path d="M1440 1764 c0 -6 15 -26 33 -45 17 -20 25 -26 16 -15 -9 12 -23 32
-32 46 -10 13 -17 20 -17 14z"/>
<path d="M1961 1754 c0 -11 3 -14 6 -6 3 7 2 16 -1 19 -3 4 -6 -2 -5 -13z"/>
<path d="M1401 1724 c0 -11 3 -14 6 -6 3 7 2 16 -1 19 -3 4 -6 -2 -5 -13z"/>
<path d="M1415 1677 c7 -36 46 -139 50 -135 2 2 -10 39 -26 83 -16 44 -27 67
-24 52z"/>
<path d="M1555 1630 c10 -11 20 -20 23 -20 3 0 -3 9 -13 20 -10 11 -20 20 -23
20 -3 0 3 -9 13 -20z"/>
<path d="M1321 1629 c-2 -48 69 -198 111 -235 23 -21 20 -13 -26 54 -16 24
-42 78 -57 120 -15 42 -28 70 -28 61z"/>
<path d="M957 1580 c3 -11 7 -20 9 -20 2 0 4 9 4 20 0 11 -4 20 -9 20 -5 0 -7
-9 -4 -20z"/>
<path d="M942 1560 c0 -14 2 -19 5 -12 2 6 2 18 0 25 -3 6 -5 1 -5 -13z"/>
<path d="M2701 1544 c0 -11 3 -14 6 -6 3 7 2 16 -1 19 -3 4 -6 -2 -5 -13z"/>
<path d="M1710 1540 c8 -5 20 -10 25 -10 6 0 3 5 -5 10 -8 5 -19 10 -25 10 -5
0 -3 -5 5 -10z"/>
<path d="M972 1525 c0 -11 3 -29 8 -40 11 -25 11 1 0 35 -6 20 -8 21 -8 5z"/>
<path d="M2468 1533 c7 -3 16 -2 19 1 4 3 -2 6 -13 5 -11 0 -14 -3 -6 -6z"/>
<path d="M1470 1527 c-1 -17 43 -96 63 -114 l21 -18 -17 25 c-9 14 -28 45 -42
70 -13 25 -24 42 -25 37z"/>
<path d="M2408 1523 c-9 -2 -15 -10 -12 -17 7 -17 -46 -55 -99 -72 -34 -10
-37 -13 -16 -13 32 -1 63 -31 33 -31 -20 0 -50 -37 -46 -57 3 -15 -48 -54 -61
-46 -5 3 -7 2 -4 -4 3 -5 -23 -31 -59 -58 -75 -57 -79 -78 -17 -85 27 -3 40
-9 35 -16 -4 -6 -28 -8 -62 -5 l-55 6 2 50 c1 40 -1 45 -8 25 -7 -22 -8 -20
-6 13 2 20 0 37 -3 37 -4 0 -12 19 -19 43 -7 23 -23 61 -36 85 -13 23 -20 42
-16 42 4 0 16 -15 26 -34 10 -18 27 -39 38 -46 17 -10 15 -6 -6 19 -37 45 -44
78 -21 96 27 21 170 21 178 0 8 -22 25 -18 19 5 -5 18 -14 20 -94 20 l-88 0
-68 -47 c-37 -26 -106 -85 -153 -130 -79 -78 -87 -83 -127 -83 -48 0 -49 1
-29 33 36 54 53 212 27 240 -5 4 -21 -9 -36 -30 -15 -21 -46 -58 -69 -82 -40
-44 -40 -44 -5 -15 19 16 51 49 70 73 l34 45 3 -72 c5 -116 -37 -189 -143
-245 -16 -9 -25 -16 -19 -17 7 0 34 15 61 33 44 30 55 33 98 28 l48 -6 -25
-30 c-131 -159 -254 -444 -323 -750 -15 -66 -35 -144 -46 -174 -11 -30 -18
-55 -17 -56 28 -18 225 -90 315 -115 113 -31 272 -59 393 -70 106 -9 250 -13
250 -7 0 1 -4 17 -9 35 -8 27 -7 34 9 42 28 15 29 14 36 -30 4 -22 9 -42 13
-44 12 -6 199 15 301 34 100 20 248 58 304 80 l26 10 -37 52 c-69 98 -105 138
-125 138 -10 0 -39 5 -63 11 l-44 11 21 29 c24 32 21 42 -14 40 -135 -7 -164
-5 -195 11 -18 10 -42 18 -54 18 -11 0 -34 14 -51 30 -16 17 -43 37 -58 45
-16 8 -31 23 -34 33 -4 11 -24 33 -46 51 -22 18 -40 38 -40 46 0 8 -16 33 -36
54 -31 35 -36 47 -39 103 -3 52 -2 59 7 38 42 -95 59 -128 78 -150 l22 -25
-18 30 c-79 131 -89 248 -29 351 30 51 112 117 182 145 30 12 37 18 18 14 -69
-14 -190 -108 -225 -174 -15 -28 -19 -31 -20 -15 0 11 7 29 15 40 8 10 15 27
15 37 0 21 122 147 142 147 11 0 11 2 0 8 -13 9 -6 42 9 42 8 0 13 -15 10 -32
-2 -14 29 -9 54 8 15 10 38 15 60 12 19 -2 35 0 35 4 0 4 -8 8 -18 8 -10 0
-23 5 -30 12 -9 9 -16 7 -32 -7 -11 -10 -20 -14 -20 -9 0 5 -8 0 -16 -11 l-16
-20 4 20 c2 11 10 20 18 20 8 0 21 4 29 9 12 8 11 11 -4 22 -9 7 -15 18 -13
25 2 7 -11 26 -30 43 l-34 29 39 19 c21 10 52 34 70 53 31 33 29 38 -9 28z
m-50 -175 c4 -31 -22 -50 -52 -39 -23 9 -30 51 -9 51 8 0 11 5 8 11 -5 7 3 9
21 7 23 -2 30 -9 32 -30z m-75 -62 c3 3 3 -3 0 -14 -3 -12 -14 -29 -26 -39
-11 -10 -17 -12 -13 -5 9 15 1 15 -24 2 -13 -7 -19 -6 -23 4 -6 15 26 50 36
40 4 -4 9 1 13 10 4 12 10 14 19 6 6 -5 14 -7 18 -4z m-176 -268 c-3 -8 -6 -5
-6 6 -1 11 2 17 5 13 3 -3 4 -12 1 -19z m-69 -183 c7 -15 8 -35 2 -54 -5 -19
-5 -31 1 -31 12 0 22 45 17 75 -4 21 -1 25 17 25 25 0 35 -29 25 -70 -5 -16
-1 -32 9 -44 15 -18 15 -19 -24 -11 -22 4 -51 9 -65 10 -44 3 -47 5 -57 28
-19 42 18 114 52 101 7 -3 17 -16 23 -29z m269 -381 c4 -28 4 -28 -13 -9 -15
19 -15 19 0 -5 26 -40 36 -69 29 -86 -4 -10 -8 -12 -13 -4 -5 8 -14 8 -36 0
-26 -10 -31 -9 -57 20 -30 34 -34 77 -7 90 26 13 75 28 84 26 5 -1 11 -15 13
-32z m-194 -45 c59 -18 77 -28 90 -51 10 -17 26 -32 37 -35 11 -3 17 -9 14
-14 -3 -5 -10 -7 -15 -4 -5 4 -5 -3 0 -18 5 -14 7 -34 4 -46 -4 -16 -1 -21 16
-21 13 0 21 -6 21 -16 0 -11 5 -14 18 -9 9 4 26 10 37 13 20 5 20 5 1 -16 -11
-12 -16 -22 -13 -22 4 0 9 0 12 0 3 0 5 3 4 7 -1 10 32 26 39 19 8 -8 -11 -25
-76 -69 -60 -41 -141 -61 -206 -52 -37 6 -50 3 -75 -15 -38 -26 -65 -20 -86
20 -39 76 10 154 66 104 16 -14 19 -14 35 11 16 25 22 27 61 21 24 -3 55 -9
69 -12 18 -5 25 -3 20 4 -3 5 -25 13 -49 17 -59 9 -84 23 -98 57 -14 33 -23
32 -111 -12 -32 -16 -64 -27 -71 -24 -25 9 -49 67 -45 109 2 32 7 41 25 43 32
5 73 -26 73 -54 0 -13 5 -24 11 -24 7 0 9 10 5 24 -5 21 1 28 47 55 28 17 55
31 60 31 4 0 40 -10 80 -21z m383 -21 c5 -7 2 -9 -9 -5 -17 7 -41 -15 -29 -28
4 -5 2 -5 -5 -2 -9 6 -11 22 -4 45 3 8 41 0 47 -10z m92 0 c19 2 33 -2 43 -14
8 -10 9 -15 2 -11 -6 4 -13 1 -16 -5 -3 -10 -7 -10 -20 1 -9 7 -26 11 -36 8
-12 -3 -22 1 -25 10 -3 8 -1 11 4 8 6 -3 10 0 11 7 0 7 2 8 5 2 2 -6 17 -9 32
-6z m90 -5 c-8 -10 -14 -10 -24 -2 -20 16 -18 19 10 17 19 -2 22 -5 14 -15z
m-268 -17 c0 -3 -4 -8 -10 -11 -5 -3 -10 -1 -10 4 0 6 5 11 10 11 6 0 10 -2
10 -4z m-123 -32 c-3 -3 -12 -4 -19 -1 -8 3 -5 6 6 6 11 1 17 -2 13 -5z m83
-8 c0 -2 -6 -9 -14 -15 -11 -9 -16 -9 -22 0 -4 8 -3 9 4 5 7 -4 12 -2 12 3 0
6 5 11 10 11 6 0 10 -2 10 -4z m128 -11 c2 -2 -15 -23 -36 -48 -22 -25 -42
-43 -45 -40 -3 3 6 16 21 30 22 20 23 24 7 19 -19 -6 -19 -6 -1 9 10 8 23 12
29 8 6 -4 7 -1 3 6 -5 7 -14 10 -22 7 -7 -3 -16 -1 -19 5 -4 5 -11 7 -16 4 -5
-4 -9 -2 -9 3 0 8 78 5 88 -3z"/>
<path d="M2244 1269 c-3 -6 -1 -16 5 -22 9 -9 10 -7 5 7 -5 13 -4 17 4 12 7
-4 12 -2 12 3 0 14 -17 14 -26 0z"/>
<path d="M2212 1254 c-7 -8 -8 -14 -3 -14 10 0 25 19 20 25 -2 1 -10 -3 -17
-11z"/>
<path d="M2066 753 c-6 -14 -5 -15 5 -6 7 7 10 15 7 18 -3 3 -9 -2 -12 -12z"/>
<path d="M2026 368 c-10 -39 -7 -44 9 -14 17 33 18 36 6 36 -5 0 -11 -10 -15
-22z"/>
<path d="M2010 138 c0 -7 5 -20 10 -28 8 -12 10 -11 10 7 0 12 -4 25 -10 28
-5 3 -10 0 -10 -7z"/>
<path d="M2692 1500 c0 -14 2 -19 5 -12 2 6 2 18 0 25 -3 6 -5 1 -5 -13z"/>
<path d="M1818 1503 c7 -3 16 -2 19 1 4 3 -2 6 -13 5 -11 0 -14 -3 -6 -6z"/>
<path d="M1858 1493 c6 -2 18 -2 25 0 6 3 1 5 -13 5 -14 0 -19 -2 -12 -5z"/>
<path d="M2308 1493 c7 -3 16 -2 19 1 4 3 -2 6 -13 5 -11 0 -14 -3 -6 -6z"/>
<path d="M3115 1423 c-44 -42 -62 -63 -40 -46 39 31 134 123 125 123 -3 -1
-41 -35 -85 -77z"/>
<path d="M1918 1483 c6 -2 18 -2 25 0 6 3 1 5 -13 5 -14 0 -19 -2 -12 -5z"/>
<path d="M2258 1483 c7 -3 16 -2 19 1 4 3 -2 6 -13 5 -11 0 -14 -3 -6 -6z"/>
<path d="M995 1435 c31 -164 226 -309 410 -304 42 1 38 3 -29 10 -57 6 -99 18
-151 43 -71 33 -155 98 -155 119 0 5 8 3 18 -5 44 -39 101 -58 175 -58 70 0
161 21 173 41 3 5 -18 0 -46 -11 -36 -14 -74 -20 -129 -20 -74 0 -83 2 -131
35 -29 19 -56 33 -60 30 -7 -4 -43 62 -74 135 -3 8 -4 2 -1 -15z"/>
<path d="M2218 1433 c6 -2 18 -2 25 0 6 3 1 5 -13 5 -14 0 -19 -2 -12 -5z"/>
<path d="M942 1400 c0 -14 2 -19 5 -12 2 6 2 18 0 25 -3 6 -5 1 -5 -13z"/>
<path d="M880 1376 c0 -2 8 -10 18 -17 15 -13 16 -12 3 4 -13 16 -21 21 -21
13z"/>
<path d="M951 1344 c0 -11 3 -14 6 -6 3 7 2 16 -1 19 -3 4 -6 -2 -5 -13z"/>
<path d="M910 1336 c0 -2 8 -10 18 -17 15 -13 16 -12 3 4 -13 16 -21 21 -21
13z"/>
<path d="M960 1305 c0 -8 4 -15 10 -15 5 0 7 7 4 15 -4 8 -8 15 -10 15 -2 0
-4 -7 -4 -15z"/>
<path d="M1459 1303 c-13 -16 -12 -17 4 -4 9 7 17 15 17 17 0 8 -8 3 -21 -13z"/>
<path d="M2556 1267 c3 -10 9 -15 12 -12 3 3 0 11 -7 18 -10 9 -11 8 -5 -6z"/>
<path d="M2433 1235 l-21 -25 36 1 c23 1 29 3 15 6 -19 4 -21 8 -13 24 14 25
10 24 -17 -6z"/>
<path d="M2530 1230 c-45 -5 -44 -5 31 -17 168 -27 307 -130 359 -267 9 -24 8
-25 -19 -20 -22 5 -32 0 -48 -20 -35 -44 -5 -136 44 -136 19 0 16 -15 -13 -75
-49 -99 -158 -195 -244 -214 -58 -13 -164 4 -227 36 -29 14 -83 50 -120 80
-68 55 -68 55 -18 7 74 -70 142 -111 214 -130 77 -19 153 -15 205 12 93 48
198 167 225 255 9 28 21 40 54 55 23 11 44 18 47 18 3 -1 13 6 23 16 18 18 17
19 -35 49 -29 17 -56 31 -59 31 -3 0 -16 26 -29 57 -44 106 -187 224 -300 248
-19 4 -37 10 -40 14 -3 3 -25 4 -50 1z m436 -339 c34 -16 65 -34 68 -40 7 -11
-44 -40 -108 -61 -37 -12 -41 -11 -58 10 -22 28 -23 78 -1 102 21 24 27 23 99
-11z"/>
<path d="M3442 1168 c-17 -17 -15 -64 4 -82 22 -22 31 -20 11 2 -20 22 -22 63
-5 80 7 7 10 12 7 12 -3 0 -10 -5 -17 -12z"/>
<path d="M2910 1152 c0 -5 11 -14 25 -20 14 -6 25 -10 25 -8 0 2 -11 11 -25
20 -14 9 -25 13 -25 8z"/>
<path d="M2430 1126 c0 -2 8 -10 18 -17 15 -13 16 -12 3 4 -13 16 -21 21 -21
13z"/>
<path d="M3504 1119 c-3 -6 -15 -9 -25 -6 -11 3 -17 1 -13 -4 8 -14 30 -11 44
6 7 8 10 15 7 15 -3 0 -9 -5 -13 -11z"/>
<path d="M3550 1112 c0 -6 -10 -21 -22 -32 -18 -16 -19 -20 -5 -14 19 7 42 42
33 52 -3 3 -6 0 -6 -6z"/>
<path d="M2396 1095 c-11 -8 -28 -15 -38 -15 -21 0 -24 -30 -6 -48 17 -17 63
-15 77 2 14 17 11 68 -4 72 -5 2 -19 -3 -29 -11z"/>
<path d="M3190 1070 c-3 -14 -3 -38 -1 -53 3 -25 5 -26 16 -10 11 15 15 16 31
3 15 -13 17 -13 12 0 -2 8 -14 16 -26 18 -15 2 -22 12 -24 35 -3 29 -4 30 -8
7z"/>
<path d="M3341 1074 c0 -12 5 -24 13 -27 15 -6 50 29 37 38 -5 3 -11 -2 -15
-10 -7 -20 -24 -19 -29 3 -4 13 -5 12 -6 -4z"/>
<path d="M2970 1066 c0 -2 8 -10 18 -17 15 -13 16 -12 3 4 -13 16 -21 21 -21
13z"/>
<path d="M3293 1050 c-6 -22 -7 -22 -20 -5 -11 16 -13 17 -13 3 0 -27 20 -32
41 -10 12 14 15 23 8 27 -6 4 -13 -3 -16 -15z"/>
<path d="M3110 1035 c-7 -9 -11 -17 -9 -20 3 -2 10 5 17 15 14 24 10 26 -8 5z"/>
<path d="M2320 1036 c0 -2 8 -10 18 -17 15 -13 16 -12 3 4 -13 16 -21 21 -21
13z"/>
<path d="M3012 990 c0 -14 2 -19 5 -12 2 6 2 18 0 25 -3 6 -5 1 -5 -13z"/>
<path d="M3140 978 c0 -9 -6 -19 -12 -21 -10 -4 -10 -6 0 -6 14 -1 28 26 18
36 -3 4 -6 -1 -6 -9z"/>
<path d="M2524 904 c14 -22 30 -61 35 -85 7 -35 9 -38 10 -15 1 33 -32 107
-56 128 -9 7 -4 -5 11 -28z"/>
<path d="M2418 916 c-22 -16 -23 -30 -2 -50 17 -17 74 -22 74 -6 0 5 -12 23
-27 40 -25 26 -30 28 -45 16z"/>
<path d="M2715 760 c5 -8 -5 -11 -35 -9 -54 4 -69 -14 -50 -60 26 -64 112 -48
118 21 3 29 -1 39 -19 48 -16 9 -20 9 -14 0z"/>
<path d="M3015 759 c-4 -6 -5 -12 -2 -15 2 -3 7 2 10 11 7 17 1 20 -8 4z"/>
<path d="M2994 671 c-12 -14 -24 -36 -28 -48 -4 -12 -20 -32 -37 -43 -16 -12
-29 -25 -29 -30 0 -15 64 52 95 98 32 48 31 63 -1 23z"/>
</g>
</svg>
